<svg xmlns="http://www.w3.org/2000/svg" width="906" height="185" fill="none" viewBox="0 0 906 185">
  <path fill="#FF3670" fill-rule="evenodd" d="M905.684 31.88c0-17.595-14.285-31.88-31.88-31.88H752.88C735.285 0 721 14.285 721 31.88v120.924c0 17.595 14.285 31.88 31.88 31.88h120.924c17.595 0 31.88-14.285 31.88-31.88z" clip-rule="evenodd"/>
  <path fill="#fff" d="M874.531 41.89c-27.088-1.159-51.961 15.508-61.189 41.002-9.229-25.494-34.102-42.16-61.19-41.001-.902 21.495 9.381 41.993 27.151 54.12a33.49 33.49 0 0 1 14.518 27.675v19.163h39.046v-19.163a33.48 33.48 0 0 1 14.513-27.674c17.775-12.124 28.06-32.625 27.151-54.121"/>
  <mask id="a" width="523" height="124" x="0" y="28" fill="#000" maskUnits="userSpaceOnUse">
    <path fill="#fff" d="M0 28h523v124H0z"/>
    <path d="M51.625 33.875q2.5 0 4.125.938t1.625 2.374q0 .5-.187 1.063l-42 102.688q-.438 1-1.563 1.624-1.062.626-2.5.626-2.5 0-4.125-.938t-1.625-2.375q0-.5.188-1.063l42-102.687q.436-1 1.5-1.625 1.125-.625 2.562-.625m58.687 12.938q7.813 0 13.376 2.624 5.625 2.625 8.5 7.376 2.937 4.75 2.937 11.062 0 7.124-4.625 12.063-4.624 4.936-12.688 6.75 3.5 1.374 5.813 4.437a39.5 39.5 0 0 1 3.313 5.125q1.374 2.5 3.062 6.188 1.75 3.812 2.688 5.562 2.437 4.5 5.624 4.5h1.75q2.125 0 3 1 .939.937.938 3.25 0 2.313-.938 3.312-.875.939-3 .938h-4.5q-3.75 0-6.374-1.938-2.564-2-5-6.75-1.375-2.75-3.376-7.25-1.875-4.124-3.062-6.374a31 31 0 0 0-2.75-4.563q-1.875-2.625-4.5-3.937-2.625-1.376-6.312-1.376h-8.5V112.5h8.124q2.126 0 3 1 .939.937.938 3.25 0 2.313-.938 3.312-.874.939-3 .938H78.688q-2.126 0-3.063-.938-.875-.999-.875-3.312t.875-3.25q.938-1 3.063-1h7.624V55.313h-7.624q-2.126 0-3.063-.938-.875-1-.875-3.312 0-2.313.875-3.25.938-1 3.063-1zm-14.624 33.5h12.687q16.875 0 16.875-12.438 0-6-4.25-9.25-4.25-3.312-12-3.312H95.688zm89.75-18.438q9.062 0 15.437 3.688 6.438 3.624 9.875 10.124 3.438 6.438 3.938 14.876 0 2.124-.938 3-.875.874-3 .874H165.5q.438 9.313 5.5 14.125 5.125 4.75 14.438 4.75 5.75 0 11.374-1.437 5.625-1.5 9.876-3.937 1.062-.564 1.937-.563 2.187 0 3.563 3.313.561 1.311.562 2.374 0 2.5-2.75 3.876-4.812 2.436-11.375 3.937t-13.187 1.5q-9.438 0-16.126-3.625-6.687-3.625-10.187-10.438-3.5-6.812-3.5-16.187 0-8.938 3.813-15.812Q163.25 69.437 170 65.687q6.75-3.812 15.438-3.812m0 9.063q-7.689 0-12.75 3.937-5 3.875-6.563 10.813h38.187q-1.311-7.188-6.062-10.938-4.688-3.812-12.812-3.812m72.75-9.063q6.125 0 11.312 2.75t9.125 7.875v-5q0-2.313.875-3.25.938-1 3.062-1h9.938q2.125 0 3 1 .938.937.938 3.25t-.938 3.313q-.875.936-3 .937h-5.125v51.125q0 7.437-3.187 12.75-3.126 5.375-9.126 8.187-6 2.814-14.437 2.813-6 0-12.125-1.063-6.125-.999-11.438-2.937-2.436-.874-2.437-3.313 0-1 .5-2.5 1.125-3.437 3.563-3.437.687 0 1.374.25a66 66 0 0 0 10.25 2.75q5.376 1 10.313 1 8.625 0 13-4.125Q278 129.188 278 122.062V109.5q-7.75 9.75-19.812 9.75-7.75 0-13.876-3.438-6.124-3.5-9.624-10t-3.5-15.25 3.5-15.25 9.624-9.937q6.126-3.5 13.876-3.5m.624 9.25q-5.562 0-9.562 2.5-4 2.438-6.125 6.875-2.063 4.375-2.063 10.063 0 5.686 2.063 10.125 2.125 4.374 6.125 6.874 4 2.439 9.562 2.438 5.563 0 9.876-2.312 4.374-2.313 6.812-6.688 2.5-4.437 2.5-10.437t-2.5-10.376q-2.438-4.437-6.812-6.75-4.313-2.312-9.876-2.312m105.25 23q2.563 0 3.626.938 1.062.936 1.062 3.124v18.563q0 2.313-.938 3.312-.875.939-3 .938h-55.874q-2.125 0-3.063-.938-.875-.999-.875-3.312t.875-3.25q.938-1 3.063-1h6.374V55.313h-6.374q-2.125 0-3.063-.938-.875-1-.875-3.312 0-2.313.875-3.25.938-1 3.063-1h54.624q2.125 0 3 1 .938.937.938 3.25v15.874q0 2.188-1.062 3.126-1.063.936-3.626.937-2.562 0-3.624-.937t-1.063-3.126V55.314h-33.437V78.5h16.124v-5.687q0-2.188.938-3.126 1-.936 3.5-.937 2.5 0 3.438.938 1 .936 1 3.124v19.876q0 2.188-1 3.124-.938.939-3.438.938-2.5 0-3.5-.937-.938-.938-.938-3.126V87h-16.124v25.5h34.687V98.188q0-2.188 1.063-3.126 1.062-.936 3.624-.937m80.5-30.875q2.125 0 3 1 .938.937.938 3.25t-.938 3.313q-.875.936-3 .937H440.5l-18.562 19.563L442 112.5h3.188q2.124 0 3 1 .937.937.937 3.25t-.937 3.312q-.876.939-3 .938h-21.5q-2.125 0-3.063-.938-.875-.999-.875-3.312t.875-3.25q.938-1 3.063-1h6l-15-16.125L399.75 112.5h4.938q2.124 0 3 1 .937.937.937 3.25t-.937 3.312q-.876.939-3 .938h-19.626q-2.124 0-3.062-.938-.875-.999-.875-3.312t.875-3.25q.938-1 3.062-1h3.126L408.5 91.188 390.125 71.75h-4.437q-2.125 0-3.063-.937-.875-1-.875-3.313t.875-3.25q.938-1 3.063-1h21.5q2.124 0 3 1 .937.937.937 3.25t-.937 3.313q-.876.936-3 .937h-4.75l13.25 14.375L429 71.75h-3.438q-2.124 0-3.062-.937-.875-1-.875-3.313t.875-3.25q.938-1 3.062-1zm67.563-29.375q2.5 0 4.125.938t1.625 2.374q0 .5-.187 1.063l-42 102.688q-.438 1-1.563 1.624-1.062.626-2.5.626-2.5 0-4.125-.938t-1.625-2.375q0-.5.187-1.063l42-102.687q.438-1 1.5-1.625 1.126-.625 2.563-.625"/>
  </mask>
  <path fill="#000" d="M51.625 33.875q2.5 0 4.125.938t1.625 2.374q0 .5-.187 1.063l-42 102.688q-.438 1-1.563 1.624-1.062.626-2.5.626-2.5 0-4.125-.938t-1.625-2.375q0-.5.188-1.063l42-102.687q.436-1 1.5-1.625 1.125-.625 2.562-.625m58.687 12.938q7.813 0 13.376 2.624 5.625 2.625 8.5 7.376 2.937 4.75 2.937 11.062 0 7.124-4.625 12.063-4.624 4.936-12.688 6.75 3.5 1.374 5.813 4.437a39.5 39.5 0 0 1 3.313 5.125q1.374 2.5 3.062 6.188 1.75 3.812 2.688 5.562 2.437 4.5 5.624 4.5h1.75q2.125 0 3 1 .939.937.938 3.25 0 2.313-.938 3.312-.875.939-3 .938h-4.5q-3.75 0-6.374-1.938-2.564-2-5-6.75-1.375-2.75-3.376-7.25-1.875-4.124-3.062-6.374a31 31 0 0 0-2.75-4.563q-1.875-2.625-4.5-3.937-2.625-1.376-6.312-1.376h-8.5V112.5h8.124q2.126 0 3 1 .939.937.938 3.25 0 2.313-.938 3.312-.874.939-3 .938H78.688q-2.126 0-3.063-.938-.875-.999-.875-3.312t.875-3.25q.938-1 3.063-1h7.624V55.313h-7.624q-2.126 0-3.063-.938-.875-1-.875-3.312 0-2.313.875-3.25.938-1 3.063-1zm-14.624 33.5h12.687q16.875 0 16.875-12.438 0-6-4.25-9.25-4.25-3.312-12-3.312H95.688zm89.75-18.438q9.062 0 15.437 3.688 6.438 3.624 9.875 10.124 3.438 6.438 3.938 14.876 0 2.124-.938 3-.875.874-3 .874H165.5q.438 9.313 5.5 14.125 5.125 4.75 14.438 4.75 5.75 0 11.374-1.437 5.625-1.5 9.876-3.937 1.062-.564 1.937-.563 2.187 0 3.563 3.313.561 1.311.562 2.374 0 2.5-2.75 3.876-4.812 2.436-11.375 3.937t-13.187 1.5q-9.438 0-16.126-3.625-6.687-3.625-10.187-10.438-3.5-6.812-3.5-16.187 0-8.938 3.813-15.812Q163.25 69.437 170 65.687q6.75-3.812 15.438-3.812m0 9.063q-7.689 0-12.75 3.937-5 3.875-6.563 10.813h38.187q-1.311-7.188-6.062-10.938-4.688-3.812-12.812-3.812m72.75-9.063q6.125 0 11.312 2.75t9.125 7.875v-5q0-2.313.875-3.25.938-1 3.062-1h9.938q2.125 0 3 1 .938.937.938 3.25t-.938 3.313q-.875.936-3 .937h-5.125v51.125q0 7.437-3.187 12.75-3.126 5.375-9.126 8.187-6 2.814-14.437 2.813-6 0-12.125-1.063-6.125-.999-11.438-2.937-2.436-.874-2.437-3.313 0-1 .5-2.5 1.125-3.437 3.563-3.437.687 0 1.374.25a66 66 0 0 0 10.25 2.75q5.376 1 10.313 1 8.625 0 13-4.125Q278 129.188 278 122.062V109.5q-7.75 9.75-19.812 9.75-7.75 0-13.876-3.438-6.124-3.5-9.624-10t-3.5-15.25 3.5-15.25 9.624-9.937q6.126-3.5 13.876-3.5m.624 9.25q-5.562 0-9.562 2.5-4 2.438-6.125 6.875-2.063 4.375-2.063 10.063 0 5.686 2.063 10.125 2.125 4.374 6.125 6.874 4 2.439 9.562 2.438 5.563 0 9.876-2.312 4.374-2.313 6.812-6.688 2.5-4.437 2.5-10.437t-2.5-10.376q-2.438-4.437-6.812-6.75-4.313-2.312-9.876-2.312m105.25 23q2.563 0 3.626.938 1.062.936 1.062 3.124v18.563q0 2.313-.938 3.312-.875.939-3 .938h-55.874q-2.125 0-3.063-.938-.875-.999-.875-3.312t.875-3.25q.938-1 3.063-1h6.374V55.313h-6.374q-2.125 0-3.063-.938-.875-1-.875-3.312 0-2.313.875-3.25.938-1 3.063-1h54.624q2.125 0 3 1 .938.937.938 3.25v15.874q0 2.188-1.062 3.126-1.063.936-3.626.937-2.562 0-3.624-.937t-1.063-3.126V55.314h-33.437V78.5h16.124v-5.687q0-2.188.938-3.126 1-.936 3.5-.937 2.5 0 3.438.938 1 .936 1 3.124v19.876q0 2.188-1 3.124-.938.939-3.438.938-2.5 0-3.5-.937-.938-.938-.938-3.126V87h-16.124v25.5h34.687V98.188q0-2.188 1.063-3.126 1.062-.936 3.624-.937m80.5-30.875q2.125 0 3 1 .938.937.938 3.25t-.938 3.313q-.875.936-3 .937H440.5l-18.562 19.563L442 112.5h3.188q2.124 0 3 1 .937.937.937 3.25t-.937 3.312q-.876.939-3 .938h-21.5q-2.125 0-3.063-.938-.875-.999-.875-3.312t.875-3.25q.938-1 3.063-1h6l-15-16.125L399.75 112.5h4.938q2.124 0 3 1 .937.937.937 3.25t-.937 3.312q-.876.939-3 .938h-19.626q-2.124 0-3.062-.938-.875-.999-.875-3.312t.875-3.25q.938-1 3.062-1h3.126L408.5 91.188 390.125 71.75h-4.437q-2.125 0-3.063-.937-.875-1-.875-3.313t.875-3.25q.938-1 3.063-1h21.5q2.124 0 3 1 .937.937.937 3.25t-.937 3.313q-.876.936-3 .937h-4.75l13.25 14.375L429 71.75h-3.438q-2.124 0-3.062-.937-.875-1-.875-3.313t.875-3.25q.938-1 3.062-1zm67.563-29.375q2.5 0 4.125.938t1.625 2.374q0 .5-.187 1.063l-42 102.688q-.438 1-1.563 1.624-1.062.626-2.5.626-2.5 0-4.125-.938t-1.625-2.375q0-.5.187-1.063l42-102.687q.438-1 1.5-1.625 1.126-.625 2.563-.625"/>
  <path fill="#fff" d="m57.188 38.25 4.627 1.893.063-.154.053-.158zm-42 102.688 4.58 2.004.024-.056.023-.056zm-1.563 1.624-2.428-4.37-.054.03-.053.031zm-8.062-3.75L.934 136.92l-.063.154-.053.157zm42-102.687-4.581-2.004-.024.055-.023.056zm1.5-1.625-2.429-4.37-.053.03-.054.03zm2.562-.625v5c1.072 0 1.515.204 1.626.268l2.499-4.33 2.499-4.331c-2.055-1.186-4.362-1.607-6.624-1.607zm4.125.938-2.499 4.33c.083.048-.149-.064-.409-.445a2.73 2.73 0 0 1-.467-1.51h10c0-3.294-2.037-5.501-4.126-6.706zm1.625 2.374h-5c0-.293.055-.475.07-.518l4.743 1.581 4.743 1.581a8.4 8.4 0 0 0 .444-2.644zm-.187 1.063-4.628-1.893-42 102.688 4.627 1.893 4.628 1.892 42-102.687zm-42 102.688-4.581-2.005a1.9 1.9 0 0 1 .367-.555c.13-.134.223-.187.223-.186l2.428 4.37 2.428 4.371c1.53-.85 2.91-2.15 3.715-3.991zm-1.563 1.624-2.535-4.309a1 1 0 0 1 .102-.051.4.4 0 0 1 .064-.021c.023-.006-.014.007-.131.007v10c1.7 0 3.439-.377 5.035-1.316zm-2.5.626v-5c-1.072 0-1.515-.204-1.626-.269L7 142.25l-2.499 4.331c2.055 1.185 4.362 1.607 6.624 1.607zM7 142.25l2.499-4.331c-.083-.047.149.065.409.445.297.435.467.981.467 1.511h-10c0 3.293 2.037 5.501 4.126 6.706zm-1.625-2.375h5c0 .293-.055.476-.07.519l-4.742-1.582-4.744-1.581a8.4 8.4 0 0 0-.444 2.644zm.188-1.063 4.627 1.893 42-102.687-4.627-1.893-4.628-1.893-42 102.688zm42-102.687 4.58 2.004a1.7 1.7 0 0 1-.313.481 1.1 1.1 0 0 1-.232.2l-2.535-4.31-2.536-4.31c-1.493.879-2.778 2.177-3.545 3.93zm1.5-1.625 2.428 4.37-.031.016-.01.003a1 1 0 0 1 .175-.014v-10c-1.707 0-3.414.378-4.99 1.254zm74.625 14.938-2.134 4.521.009.005.01.004zm8.5 7.374-4.278 2.59.012.02.013.02zm-14.376 29.876-1.096-4.879-15.898 3.574 15.166 5.958zm5.813 4.437-3.99 3.013.002.002zm3.313 5.125-4.406 2.364.012.023.012.023zm3.062 6.188-4.547 2.08.003.005zm2.688 5.562-4.408 2.361.006.01.005.01zm10.374 5.5-3.762 3.293.109.125.118.118zm0 6.562-3.647-3.419-.008.008zm-13.874-1-3.077 3.942.053.041.054.04zm-5-6.75-4.473 2.237.012.023.012.023zm-3.376-7.25 4.57-2.03-.009-.019-.009-.02zm-3.062-6.374-4.496 2.187.036.074.038.072zM115 94.125l-4.069 2.906.008.01.008.011zm-4.5-3.937-2.32 4.429.042.021.042.022zm-14.812-1.376v-5h-5v5zm0 23.688h-5v5h5zm11.124 1-3.762 3.293.109.125.118.118zm0 6.562-3.647-3.419-.008.008zm-31.187 0-3.763 3.293.11.125.118.118zm0-6.562-3.648-3.42-.007.008zm10.688-1v5h5v-5zm0-57.187h5v-5h-5zm-10.688-.938-3.763 3.292.11.126.118.117zm0-6.562-3.648-3.42-.007.008zm20.063 32.5h-5v5h5zM121 58.625l-3.074 3.944.018.014.019.014zm-25.312-3.312v-5h-5v5zm14.624-8.5v5c4.664 0 8.356.784 11.242 2.146l2.134-4.522 2.133-4.521c-4.53-2.138-9.755-3.103-15.509-3.103zm13.376 2.624-2.115 4.531c2.962 1.383 4.992 3.212 6.337 5.433l4.278-2.589 4.277-2.588c-2.489-4.112-6.125-7.2-10.663-9.317zm8.5 7.376-4.253 2.63c1.408 2.277 2.19 5.029 2.19 8.432h10c0-5.013-1.177-9.636-3.685-13.692zm2.937 11.062h-5c0 3.555-1.108 6.332-3.274 8.644l3.649 3.418 3.649 3.419c4.001-4.271 5.976-9.536 5.976-15.481zM130.5 79.938l-3.649-3.419c-2.259 2.412-5.519 4.252-10.135 5.29l1.096 4.879 1.097 4.878c6.134-1.38 11.333-4.039 15.24-8.21zm-12.688 6.75-1.828 4.653c1.457.573 2.653 1.475 3.651 2.797l3.99-3.013 3.99-3.013c-2.085-2.762-4.764-4.817-7.974-6.078zm5.813 4.437-3.988 3.016a34.5 34.5 0 0 1 2.895 4.473l4.406-2.364 4.405-2.364a44 44 0 0 0-3.73-5.776zm3.313 5.125-4.382 2.41c.839 1.524 1.804 3.469 2.897 5.858l4.547-2.08 4.547-2.081c-1.157-2.528-2.234-4.708-3.228-6.517zm3.062 6.188-4.544 2.085c1.173 2.557 2.122 4.528 2.824 5.838l4.408-2.361 4.407-2.361c-.548-1.023-1.391-2.76-2.551-5.287zm2.688 5.562-4.397 2.381c1.934 3.57 5.121 7.119 10.021 7.119v-10c.22 0 .297.109.124-.029-.245-.196-.734-.711-1.352-1.852zm5.624 4.5v5h1.75v-10h-1.75zm1.75 0v5c.344 0 .383.044.232-.007-.182-.06-.598-.248-.994-.7l3.762-3.293 3.763-3.293c-1.976-2.259-4.753-2.707-6.763-2.707zm3 1-3.535 3.536c-.428-.428-.551-.817-.565-.869-.009-.029.002 0 .014.104.013.103.024.26.024.479h10c0-1.953-.347-4.73-2.402-6.786zm.938 3.25h-5c0 .219-.011.379-.024.488s-.025.149-.021.135c.007-.025.104-.35.46-.73l3.647 3.419 3.648 3.42c1.924-2.052 2.29-4.733 2.29-6.732zm-.938 3.312-3.655-3.411c.419-.449.835-.613.977-.658.118-.037.047.007-.322.007v10c1.931 0 4.662-.39 6.656-2.526zm-3 .938v-5h-4.5v10h4.5zm-4.5 0v-5c-1.597 0-2.64-.395-3.405-.96l-2.969 4.022-2.97 4.023c2.735 2.019 5.942 2.915 9.344 2.915zm-6.374-1.938 3.076-3.941c-.883-.689-2.147-2.206-3.628-5.091l-4.448 2.282-4.449 2.283c1.769 3.448 3.838 6.432 6.372 8.409zm-5-6.75 4.472-2.236c-.869-1.737-1.96-4.078-3.278-7.044l-4.57 2.03-4.569 2.031c1.349 3.034 2.508 5.527 3.472 7.456zm-3.376-7.25 4.552-2.069c-1.264-2.782-2.332-5.01-3.192-6.64l-4.422 2.335-4.422 2.333c.724 1.371 1.697 3.393 2.933 6.111zm-3.062-6.374 4.496-2.188a36 36 0 0 0-3.193-5.302L115 94.125l-4.053 2.927a26 26 0 0 1 2.307 3.823zM115 94.125l4.069-2.906c-1.676-2.347-3.783-4.229-6.333-5.504l-2.236 4.472-2.236 4.473c.95.475 1.843 1.218 2.667 2.371zm-4.5-3.937 2.32-4.43c-2.62-1.372-5.56-1.945-8.632-1.945v10c1.844 0 3.112.343 3.992.804zm-6.312-1.376v-5h-8.5v10h8.5zm-8.5 0h-5V112.5h10V88.813zm0 23.688v5h8.124v-10h-8.124zm8.124 0v5c.344 0 .383.044.232-.007-.182-.06-.598-.248-.994-.7l3.762-3.293 3.763-3.293c-1.976-2.259-4.753-2.707-6.763-2.707zm3 1-3.535 3.536c-.428-.428-.551-.817-.565-.869-.009-.029.002 0 .014.104.013.103.024.26.024.479h10c0-1.953-.347-4.73-2.402-6.786zm.938 3.25h-5c0 .219-.011.379-.024.488s-.025.149-.021.135c.007-.025.104-.35.46-.73l3.647 3.419 3.648 3.42c1.924-2.052 2.29-4.733 2.29-6.732zm-.938 3.312-3.655-3.411c.419-.449.835-.613.977-.658.118-.037.047.007-.322.007v10c1.931 0 4.662-.39 6.656-2.526zm-3 .938v-5H78.688v10h25.124zm-25.124 0v-5c-.365 0-.455-.043-.365-.015.11.033.463.168.838.542l-3.536 3.535-3.535 3.536c1.993 1.994 4.623 2.402 6.597 2.402zm-3.063-.938 3.763-3.292c.17.195.276.372.337.496q.045.092.061.141l.017.05-.01-.044a2 2 0 0 1-.018-.137 5 5 0 0 1-.025-.526h-10c0 1.937.322 4.559 2.112 6.605zm-.875-3.312h5c0-.231.011-.401.024-.518.013-.119.026-.164.023-.151-.003.01-.104.388-.517.831l-3.655-3.412-3.655-3.412c-1.918 2.055-2.22 4.773-2.22 6.662zm.875-3.25 3.648 3.42c-.356.379-.713.534-.862.583-.121.04-.063-.003.276-.003v-10c-2.05 0-4.727.465-6.71 2.58zm3.063-1v5h7.624v-10h-7.624zm7.624 0h5V55.313h-10V112.5zm0-57.187v-5h-7.624v10h7.624zm-7.624 0v-5c-.365 0-.455-.043-.365-.016.11.034.463.168.838.543l-3.536 3.535-3.535 3.535c1.993 1.994 4.623 2.403 6.597 2.403zm-3.063-.938 3.763-3.292c.17.194.276.371.337.495a1.4 1.4 0 0 1 .078.192l-.01-.045a2 2 0 0 1-.018-.136 5 5 0 0 1-.025-.526h-10c0 1.936.322 4.558 2.112 6.604zm-.875-3.312h5c0-.231.011-.401.024-.519s.026-.163.023-.15c-.003.01-.104.388-.517.83l-3.655-3.411L71.97 44.4c-1.918 2.055-2.22 4.772-2.22 6.661zm.875-3.25 3.648 3.42c-.356.379-.713.534-.862.583-.121.04-.063-.004.276-.004v-10c-2.05 0-4.727.466-6.71 2.58zm3.063-1v5h31.624v-10H78.688zm17 33.5v5h12.687v-10H95.688zm12.687 0v5c6.092 0 11.569-1.097 15.623-4.085 4.339-3.198 6.252-7.954 6.252-13.353h-10c0 2.893-.899 4.356-2.185 5.303-1.571 1.158-4.532 2.135-9.69 2.135zm16.875-12.438h5c0-5.341-1.98-9.985-6.213-13.222L121 58.625l-3.037 3.972c1.434 1.096 2.287 2.619 2.287 5.278zm-4.25-9.25 3.074-3.944c-4.024-3.136-9.267-4.368-15.074-4.368v10c4.527 0 7.283.975 8.926 2.256zm-12-3.312v-5H95.688v10H109zm-13.312 0h-5v25h10v-25zm105.187 10.25-2.504 4.328.025.014.026.014zm9.875 10.124-4.42 2.338.005.009.004.009zm3.938 14.876h5v-.148l-.009-.148zm-.938 3-3.412-3.656-.063.059-.061.061zm-48.25.874v-5h-5.24l.246 5.235zm5.5 14.125-3.445 3.624.023.022.023.022zm25.812 3.313 1.238 4.844.026-.006.025-.007zm9.876-3.937-2.34-4.419-.075.039-.073.042zm5.5 2.75-4.618 1.916.011.027.011.026zm-2.188 6.25-2.236-4.473-.012.006-.011.006zm-40-51.25 2.428 4.37.016-.008.015-.009zm2.688 9.187 3.062 3.952.007-.005zm-6.563 10.813-4.878-1.1-1.373 6.1h6.251zm38.187 0v5h5.996l-1.077-5.899zM198.25 74.75l-3.155 3.879.028.023.029.022zm-12.812-12.875v5c5.363 0 9.602 1.088 12.933 3.016l2.504-4.329 2.504-4.328c-5.169-2.989-11.222-4.359-17.941-4.359zm15.437 3.688-2.453 4.356c3.46 1.949 6.067 4.625 7.908 8.106l4.42-2.338 4.42-2.337c-2.742-5.185-6.719-9.26-11.842-12.144zm9.875 10.124-4.411 2.356c1.902 3.562 3.06 7.797 3.357 12.815l4.992-.296 4.991-.295c-.37-6.232-1.837-11.913-4.518-16.935zm3.938 14.876h-5c0 .368-.044.44-.007.32.044-.141.208-.557.657-.976l3.412 3.656 3.412 3.655c2.136-1.994 2.526-4.725 2.526-6.656zm-.938 3-3.536-3.536c.439-.439.85-.58.949-.608.084-.025-.021.019-.413.019v10c1.855 0 4.533-.337 6.536-2.34zm-3 .874v-5H165.5v10h45.25zm-45.25 0-4.994.235c.331 7.054 2.462 13.154 7.049 17.514l3.445-3.624 3.445-3.623c-2.163-2.057-3.699-5.373-3.951-10.736zm5.5 14.125-3.399 3.668c4.614 4.276 10.796 6.082 17.837 6.082v-10c-5.377 0-8.819-1.359-11.039-3.417zm14.438 4.75v5c4.254 0 8.462-.532 12.612-1.593l-1.238-4.844-1.237-4.844a40.8 40.8 0 0 1-10.137 1.281zm11.374-1.437 1.289 4.831c4.093-1.091 7.801-2.554 11.074-4.431l-2.487-4.337-2.488-4.338c-2.394 1.373-5.269 2.535-8.676 3.444zm9.876-3.937 2.339 4.418c.108-.057.13-.056.07-.039a1.7 1.7 0 0 1-.472.058v-10c-1.646 0-3.104.523-4.277 1.144zm1.937-.563v5c-.285 0-.593-.058-.883-.179a1.8 1.8 0 0 1-.537-.331c-.073-.068-.057-.072.024.054.079.126.199.344.341.685l4.618-1.916 4.617-1.917c-1.141-2.751-3.575-6.396-8.18-6.396zm3.563 3.313-4.596 1.969a3 3 0 0 1 .152.433c.017.073.006.059.006-.028h10c0-1.575-.412-3.049-.967-4.344zm.562 2.374h-5c0-.046.007-.155.052-.3.046-.147.113-.276.183-.374.136-.192.171-.119-.221.077l2.236 4.473 2.236 4.472c3.059-1.53 5.514-4.314 5.514-8.348zm-2.75 3.876-2.259-4.461c-2.769 1.402-6.159 2.593-10.23 3.524l1.114 4.874 1.114 4.874c4.679-1.069 8.872-2.503 12.52-4.351zm-11.375 3.937-1.114-4.874a54 54 0 0 1-12.073 1.374v10c4.797 0 9.567-.544 14.301-1.626zm-13.187 1.5v-5c-5.657 0-10.172-1.085-13.743-3.021l-2.383 4.396-2.382 4.396c5.345 2.897 11.581 4.229 18.508 4.229zm-16.126-3.625 2.383-4.396c-3.567-1.933-6.246-4.674-8.123-8.326l-4.447 2.284-4.447 2.285c2.79 5.431 6.902 9.649 12.252 12.549zm-10.187-10.438 4.447-2.284c-1.897-3.694-2.947-8.272-2.947-13.903h-10c0 6.87 1.284 13.083 4.053 18.472zm-3.5-16.187h5c0-5.228 1.109-9.643 3.185-13.388l-4.372-2.424-4.373-2.425c-3.007 5.422-4.44 11.548-4.44 18.237zm3.813-15.812 4.372 2.424c2.097-3.78 4.951-6.641 8.618-8.679L170 65.688l-2.428-4.371c-5.333 2.962-9.521 7.185-12.507 12.57zM170 65.687l2.459 4.354c3.663-2.069 7.942-3.166 12.979-3.166v-10c-6.548 0-12.56 1.444-17.897 4.459zm15.438 5.25v-5c-6.009 0-11.403 1.556-15.82 4.991l3.07 3.947 3.069 3.947c2.333-1.815 5.439-2.885 9.681-2.885zm-12.75 3.938-3.063-3.952c-4.366 3.383-7.115 8.057-8.378 13.666l4.878 1.099 4.878 1.098c.82-3.641 2.446-6.175 4.747-7.959zm-6.563 10.813v5h38.187v-10h-38.187zm38.187 0 4.919-.899c-1.046-5.728-3.573-10.56-7.883-13.963l-3.098 3.924-3.098 3.924c2.023 1.598 3.538 4.057 4.242 7.912zM198.25 74.75l3.155-3.879c-4.282-3.483-9.798-4.933-15.967-4.933v10c4.663 0 7.689 1.09 9.657 2.691zm80.375-2.25-3.965 3.046 8.965 11.669V72.5zm.875-8.25-3.648-3.42-.007.008zm16 0-3.763 3.293.11.125.117.117zm0 6.563-3.648-3.42-.007.008zm-8.125.937v-5h-5v5zm-3.187 63.875-4.288-2.572-.018.029-.017.03zm-35.688 9.937.855-4.926-.025-.004-.024-.004zm-11.438-2.937 1.714-4.697-.012-.005-.012-.004zm-1.937-5.813 4.743 1.582.005-.013.004-.013zm4.937-3.187-1.708 4.699.009.003.01.004zm33.563-.375-3.402-3.664-.014.013-.014.013zM278 109.5h5V95.174l-8.914 11.215zm-33.688 6.312-2.48 4.342.017.009.016.01zm0-50.437 2.448 4.36.016-.01.017-.009zm4.938 8.25 2.602 4.27.024-.015.024-.015zm-6.125 6.875-4.51-2.16-.006.014-.007.014zm0 20.188-4.534 2.107.018.039.018.038zm6.125 6.874-2.65 4.24.024.015.024.015zm19.438.126-2.337-4.421-.013.007-.013.007zM275.5 101l-4.356-2.454-.006.01-.006.01zm0-20.812-4.382 2.407.02.037.021.036zm-6.812-6.75-2.363 4.406.013.007.013.007zm-10.5-11.563v5c3.303 0 6.265.734 8.97 2.168l2.342-4.418 2.342-4.418c-4.211-2.232-8.791-3.332-13.654-3.332zm11.312 2.75-2.342 4.418c2.764 1.465 5.269 3.597 7.502 6.503l3.965-3.046 3.965-3.046c-3.017-3.927-6.595-7.045-10.748-9.247zm9.125 7.875h5v-5h-10v5zm0-5h5c0-.23.011-.4.024-.518.013-.119.026-.164.023-.15-.003.009-.104.387-.517.83L279.5 64.25l-3.655-3.412c-1.918 2.055-2.22 4.773-2.22 6.662zm.875-3.25 3.648 3.42c-.356.38-.713.534-.862.583-.121.04-.063-.003.276-.003v-10c-2.049 0-4.727.465-6.71 2.58zm3.062-1v5h9.938v-10h-9.938zm9.938 0v5c.344 0 .383.044.231-.007-.182-.06-.598-.248-.994-.7l3.763-3.293 3.763-3.292c-1.977-2.26-4.754-2.708-6.763-2.708zm3 1-3.536 3.535c-.428-.427-.55-.816-.565-.868-.008-.03.003 0 .015.104.012.103.024.26.024.479h10c0-1.953-.347-4.73-2.402-6.785zm.938 3.25h-5c0 .22-.012.38-.025.488-.012.11-.025.15-.021.135.007-.025.104-.35.46-.73l3.648 3.42 3.648 3.42c1.924-2.053 2.29-4.734 2.29-6.733zm-.938 3.313-3.655-3.412c.419-.45.834-.613.976-.658.119-.037.047.007-.321.007v10c1.93 0 4.662-.39 6.655-2.526zm-3 .937v-5h-5.125v10h5.125zm-5.125 0h-5v51.125h10V71.75zm0 51.125h-5c0 4.235-.902 7.556-2.475 10.178l4.288 2.572 4.287 2.572c2.677-4.461 3.9-9.64 3.9-15.322zm-3.187 12.75-4.323-2.513c-1.538 2.644-3.782 4.7-6.925 6.173l2.122 4.527 2.123 4.528c4.857-2.277 8.696-5.68 11.325-10.202zm-9.126 8.187-2.122-4.527c-3.18 1.491-7.23 2.34-12.315 2.34v10c6.165 0 11.74-1.026 16.56-3.285zm-14.437 2.813v-5q-5.554.001-11.27-.989l-.855 4.926-.855 4.927a76 76 0 0 0 12.98 1.136zm-12.125-1.063.806-4.934c-3.804-.621-7.31-1.526-10.53-2.7l-1.714 4.697-1.713 4.697c3.863 1.409 7.982 2.463 12.345 3.175zm-11.438-2.937 1.69-4.706c-.12-.043.191.044.51.477.336.457.363.866.363.916h-10c0 1.676.433 3.449 1.582 5.011 1.131 1.537 2.661 2.468 4.166 3.008zm-2.437-3.313h5c0 .072-.008.033.028-.144.034-.172.099-.426.215-.774l-4.743-1.582-4.743-1.581c-.417 1.25-.757 2.659-.757 4.081zm.5-2.5 4.752 1.556c.107-.327.198-.516.248-.604s.037-.039-.075.068a2 2 0 0 1-.613.388 2 2 0 0 1-.749.155v-10c-2.13 0-4.072.805-5.582 2.261-1.389 1.341-2.213 3.032-2.733 4.621zm3.563-3.437v5c-.161 0-.28-.031-.334-.051l1.708-4.699 1.709-4.699a9 9 0 0 0-3.083-.551zm1.374.25-1.689 4.706a71 71 0 0 0 11.025 2.96l.914-4.916.915-4.916a61 61 0 0 1-9.475-2.54zm10.25 2.75-.914 4.916c3.853.717 7.598 1.084 11.227 1.084v-10c-2.954 0-6.085-.299-9.398-.916zm10.313 1v5c6.473 0 12.25-1.545 16.43-5.487l-3.43-3.638-3.43-3.638c-1.653 1.558-4.543 2.763-9.57 2.763zm13-4.125 3.402 3.664c4.132-3.836 5.973-9.003 5.973-14.852h-10c0 3.652-1.075 5.944-2.777 7.524zM278 122.062h5V109.5h-10v12.562zm0-12.562-3.914-3.111c-4.254 5.352-9.438 7.861-15.898 7.861v10c9.622 0 17.647-3.991 23.726-11.639zm-19.812 9.75v-5c-4.401 0-8.168-.968-11.428-2.798l-2.448 4.36-2.447 4.361c4.906 2.753 10.39 4.077 16.323 4.077zm-13.876-3.438 2.481-4.341c-3.232-1.847-5.792-4.479-7.703-8.029l-4.402 2.37-4.403 2.371c2.755 5.117 6.612 9.151 11.547 11.971zm-9.624-10 4.402-2.37c-1.874-3.48-2.902-7.72-2.902-12.88h-10c0 6.508 1.305 12.435 4.097 17.621zm-3.5-15.25h5c0-5.159 1.028-9.398 2.902-12.879l-4.402-2.37-4.403-2.371c-2.792 5.186-4.097 11.113-4.097 17.62zm3.5-15.25 4.402 2.371c1.908-3.543 4.457-6.145 7.67-7.948l-2.448-4.36-2.447-4.36c-4.953 2.78-8.821 6.803-11.58 11.927zm9.624-9.937 2.481 4.341c3.255-1.86 7.01-2.841 11.395-2.841v-10c-5.949 0-11.444 1.352-16.356 4.159zm14.5 5.75v-5c-4.475 0-8.618 1.014-12.212 3.26l2.65 4.24 2.65 4.24c1.739-1.087 3.971-1.74 6.912-1.74zm-9.562 2.5-2.602-4.27c-3.536 2.155-6.22 5.2-8.033 8.986l4.51 2.159 4.51 2.16c1.02-2.132 2.42-3.67 4.217-4.765zm-6.125 6.875-4.523-2.132c-1.74 3.69-2.54 7.794-2.54 12.195h10c0-3.184.576-5.788 1.586-7.93zm-2.063 10.063h-5c0 4.402.801 8.515 2.529 12.232l4.534-2.107 4.534-2.108c-1.022-2.2-1.597-4.836-1.597-8.017zm2.063 10.125-4.498 2.184c1.814 3.734 4.484 6.75 7.973 8.93l2.65-4.24 2.65-4.239c-1.844-1.153-3.258-2.721-4.277-4.82zm6.125 6.874-2.602 4.27c3.587 2.186 7.712 3.168 12.164 3.168v-10c-2.964 0-5.213-.643-6.96-1.707zm9.562 2.438v5c4.419 0 8.542-.924 12.238-2.906l-2.362-4.406-2.363-4.407c-2.054 1.102-4.515 1.719-7.513 1.719zm9.876-2.312 2.336 4.42c3.783-1.999 6.754-4.924 8.844-8.674L275.5 101l-4.368-2.433c-1.16 2.082-2.73 3.616-4.781 4.7zM275.5 101l4.356 2.454c2.158-3.83 3.144-8.185 3.144-12.891h-10c0 3.293-.681 5.897-1.856 7.983zm2.5-10.437h5c0-4.704-.985-9.052-3.159-12.856l-4.341 2.48-4.341 2.481c1.159 2.029 1.841 4.598 1.841 7.894zm-2.5-10.376 4.382-2.407c-2.084-3.794-5.056-6.754-8.858-8.763l-2.336 4.42-2.337 4.421c2.032 1.074 3.601 2.614 4.767 4.737zm-6.812-6.75 2.362-4.406c-3.696-1.982-7.819-2.906-12.238-2.906v10c2.998 0 5.459.618 7.513 1.719zm99.124 46.625-3.647-3.419-.008.008zm-61.937 0-3.763 3.293.11.125.117.118zm0-6.562-3.648-3.42-.007.008zm9.437-1v5h5v-5zm0-57.187h5v-5h-5zm-9.437-.938-3.763 3.292.11.126.117.117zm0-6.562-3.648-3.42-.007.008zm60.687 0-3.762 3.292.109.125.118.118zm-8.437 7.5h5v-5h-5zm-33.437 0v-5h-5v5zm0 23.187h-5v5h5zm16.124 0v5h5v-5zm.938-8.812-3.42-3.648-.059.055-.057.057zm6.938 0-3.536 3.535.057.057.059.055zm0 26.124-3.42-3.647-.059.055-.057.057zm-6.938 0-3.536 3.536.057.057.059.055zM340.812 87h5v-5h-5zm-16.124 0v-5h-5v5zm0 25.5h-5v5h5zm34.687 0v5h5v-5zm4.687-18.375v5c.278 0 .494.013.655.03.163.018.252.038.281.045.077.02-.224-.04-.619-.388l3.309-3.75 3.308-3.749c-2.117-1.868-4.889-2.188-6.934-2.188zm3.626.938-3.309 3.749c-.4-.353-.572-.723-.628-.89-.046-.135-.001-.084-.001.266h10c0-2.116-.5-4.885-2.754-6.875zm1.062 3.124h-5v18.563h10V98.188zm0 18.563h-5c0 .219-.011.379-.024.488s-.025.149-.021.135c.007-.025.104-.35.46-.73l3.647 3.419 3.648 3.42c1.924-2.052 2.29-4.733 2.29-6.732zm-.938 3.312-3.655-3.411c.419-.449.835-.613.977-.658.118-.037.047.007-.322.007v10c1.931 0 4.662-.39 6.656-2.526zm-3 .938v-5h-55.874v10h55.874zm-55.874 0v-5c-.364 0-.455-.043-.365-.015.11.033.463.168.838.542l-3.536 3.535-3.536 3.536c1.994 1.994 4.624 2.402 6.599 2.402zm-3.063-.938 3.763-3.292c.17.195.276.372.337.496q.045.092.061.141l.017.05-.009-.044a2 2 0 0 1-.019-.137 5 5 0 0 1-.025-.526h-10c0 1.937.321 4.559 2.112 6.605zM305 116.75h5c0-.231.011-.401.024-.518.013-.119.026-.164.023-.151-.003.01-.104.388-.517.831l-3.655-3.412-3.655-3.412c-1.918 2.055-2.22 4.773-2.22 6.662zm.875-3.25 3.648 3.42c-.356.379-.713.534-.862.583-.121.04-.063-.003.277-.003v-10c-2.05 0-4.728.465-6.711 2.58zm3.063-1v5h6.374v-10h-6.374zm6.374 0h5V55.313h-10V112.5zm0-57.187v-5h-6.374v10h6.374zm-6.374 0v-5c-.364 0-.455-.043-.365-.016.11.034.463.168.838.543l-3.536 3.535-3.536 3.535c1.994 1.994 4.624 2.403 6.599 2.403zm-3.063-.938 3.763-3.292c.17.194.276.371.337.495a1.3 1.3 0 0 1 .078.192l-.009-.045a2 2 0 0 1-.019-.136 5 5 0 0 1-.025-.526h-10c0 1.936.321 4.558 2.112 6.604zM305 51.063h5c0-.231.011-.401.024-.519s.026-.163.023-.15c-.003.01-.104.388-.517.83l-3.655-3.411-3.655-3.412c-1.918 2.055-2.22 4.772-2.22 6.661zm.875-3.25 3.648 3.42c-.356.379-.713.534-.862.583-.121.04-.063-.004.277-.004v-10c-2.05 0-4.728.466-6.711 2.58zm3.063-1v5h54.624v-10h-54.624zm54.624 0v5c.344 0 .383.043.232-.007-.182-.06-.598-.248-.994-.701l3.762-3.292 3.763-3.293c-1.976-2.26-4.753-2.708-6.763-2.708zm3 1-3.535 3.535c-.428-.428-.551-.817-.565-.868-.009-.03.002 0 .014.103s.024.26.024.48h10c0-1.954-.347-4.73-2.402-6.786zm.938 3.25h-5v15.874h10V51.064zm0 15.874h-5c0 .35-.045.401.001.266.056-.167.228-.537.628-.89l3.309 3.75 3.308 3.749c2.254-1.99 2.754-4.759 2.754-6.874zm-1.062 3.126-3.309-3.75c.395-.347.696-.408.619-.388a2 2 0 0 1-.281.045 6 6 0 0 1-.655.03v10c2.045 0 4.817-.32 6.934-2.188zm-3.626.937v-5a6 6 0 0 1-.654-.03 2 2 0 0 1-.281-.045c-.077-.02.224.04.619.388l-3.308 3.75-3.309 3.749c2.117 1.868 4.889 2.188 6.933 2.188zm-3.624-.937 3.308-3.75c.4.353.572.723.628.89.046.135.001.084.001-.266h-10c0 2.116.5 4.885 2.754 6.875zm-1.063-3.126h5V55.314h-10v11.624zm0-11.624v-5h-33.437v10h33.437zm-33.437 0h-5V78.5h10V55.313zm0 23.187v5h16.124v-10h-16.124zm16.124 0h5v-5.687h-10V78.5zm0-5.687h5c0-.398.046-.512.024-.439-.027.092-.158.456-.55.849l-3.536-3.535-3.536-3.536c-2.015 2.015-2.402 4.695-2.402 6.66zm.938-3.126 3.42 3.648c-.43.403-.786.488-.751.48.008-.003.077-.02.223-.037q.215-.026.608-.028v-10c-1.996 0-4.814.316-6.92 2.29zm3.5-.937v5c.264 0 .461.013.6.028.141.016.2.032.194.03a1.3 1.3 0 0 1-.262-.112 2.7 2.7 0 0 1-.63-.473l3.536-3.535 3.535-3.536c-2.108-2.108-5.029-2.402-6.973-2.402zm3.438.938-3.42 3.647c-.399-.374-.551-.743-.593-.874-.033-.104.013-.022.013.352h10c0-2.04-.441-4.767-2.581-6.773zm1 3.124h-5v19.876h10V72.812zm0 19.876h-5c0 .373-.046.455-.013.35.042-.13.194-.499.593-.873l3.42 3.647 3.419 3.648c2.14-2.005 2.581-4.733 2.581-6.772zm-1 3.124-3.536-3.535c.24-.24.468-.388.63-.473.157-.084.257-.11.262-.112s-.053.014-.194.03a6 6 0 0 1-.6.028v10c1.944 0 4.865-.294 6.973-2.402zm-3.438.938v-5c-.263 0-.463-.013-.608-.028a2 2 0 0 1-.223-.036c-.035-.01.321.076.751.479l-3.42 3.647-3.42 3.648c2.106 1.974 4.924 2.29 6.92 2.29zm-3.5-.937 3.536-3.536c.392.393.523.757.55.849.022.073-.024-.041-.024-.439h-10c0 1.966.387 4.646 2.402 6.661zm-.938-3.126h5V87h-10v5.688zm0-5.687v-5h-16.124v10h16.124zm-16.124 0h-5v25.5h10V87zm0 25.5v5h34.687v-10h-34.687zm34.687 0h5V98.188h-10V112.5zm0-14.312h5c0-.35.045-.401-.001-.266-.056.167-.228.537-.628.89l-3.308-3.75-3.309-3.749c-2.254 1.99-2.754 4.759-2.754 6.874zm1.063-3.126 3.308 3.75c-.395.347-.696.408-.619.388a2 2 0 0 1 .281-.045 6 6 0 0 1 .654-.03v-10c-2.044 0-4.816.32-6.933 2.188zm87.124-30.812-3.762 3.293.109.125.118.117zm0 6.563-3.647-3.42-.008.008zm-7.062.937v-5h-2.148l-1.479 1.558zm-18.562 19.563-3.628-3.442-3.262 3.438 3.259 3.441zM442 112.5l-3.631 3.438 1.48 1.562H442zm6.188 1-3.763 3.293.109.125.118.118zm0 6.562-3.648-3.419-.008.008zm-27.563 0-3.763 3.293.11.125.117.118zm0-6.562-3.648-3.42-.007.008zm9.063-1v5h11.48l-7.82-8.406zm-15-16.125 3.66-3.406-3.668-3.943-3.661 3.951zM399.75 112.5l-3.668-3.398-7.779 8.398h11.447zm7.938 1-3.763 3.293.109.125.118.118zm0 6.562-3.648-3.419-.008.008zm-25.688 0-3.763 3.293.11.125.117.118zm0-6.562-3.648-3.42-.007.008zm6.188-1v5h2.141l1.478-1.55zM408.5 91.188l3.619 3.45 3.275-3.437-3.261-3.448zM390.125 71.75l3.633-3.435-1.479-1.565h-2.154zm-7.5-.937-3.763 3.292.11.125.117.118zm0-6.563-3.648-3.42-.007.008zm27.563 0-3.763 3.293.109.125.118.117zm0 6.563-3.648-3.42-.008.008zm-7.75.937v-5h-11.409l7.732 8.389zm13.25 14.375-3.677 3.389 3.668 3.979 3.677-3.97zM429 71.75l3.669 3.397 7.776-8.397H429zm-6.5-.937-3.763 3.292.11.125.117.118zm0-6.563-3.648-3.42-.007.008zm22.062-1v5c.344 0 .383.044.232-.007-.182-.06-.598-.248-.994-.7l3.762-3.293 3.763-3.292c-1.976-2.26-4.753-2.708-6.763-2.708zm3 1-3.535 3.535c-.428-.427-.551-.816-.565-.868-.009-.03.002 0 .014.104.013.103.024.26.024.479h10c0-1.953-.347-4.73-2.402-6.785zm.938 3.25h-5c0 .22-.011.38-.024.488-.013.11-.025.15-.021.135.007-.025.104-.35.46-.73l3.647 3.42 3.648 3.42c1.924-2.053 2.29-4.734 2.29-6.733zm-.938 3.313-3.655-3.412c.419-.45.835-.613.977-.658.118-.037.047.007-.322.007v10c1.931 0 4.662-.39 6.656-2.526zm-3 .937v-5H440.5v10h4.062zm-4.062 0-3.627-3.442-18.563 19.563 3.628 3.442 3.627 3.441 18.562-19.562zm-18.562 19.563-3.631 3.437 20.062 21.188L442 112.5l3.631-3.438-20.063-21.187zM442 112.5v5h3.188v-10H442zm3.188 0v5c.343 0 .382.044.231-.007-.182-.06-.598-.248-.994-.7l3.763-3.293 3.762-3.293c-1.976-2.259-4.753-2.707-6.762-2.707zm3 1-3.536 3.536c-.428-.428-.551-.817-.565-.869-.009-.029.002 0 .014.104.013.103.024.26.024.479h10c0-1.953-.347-4.73-2.402-6.786zm.937 3.25h-5c0 .219-.011.379-.024.488s-.025.149-.021.135c.007-.025.104-.35.46-.73l3.648 3.419 3.647 3.42c1.924-2.052 2.29-4.733 2.29-6.732zm-.937 3.312-3.656-3.411c.419-.449.835-.613.977-.658.118-.037.047.007-.321.007v10c1.93 0 4.661-.39 6.655-2.526zm-3 .938v-5h-21.5v10h21.5zm-21.5 0v-5c-.364 0-.455-.043-.365-.015.11.033.463.168.838.542l-3.536 3.535-3.536 3.536c1.994 1.994 4.624 2.402 6.599 2.402zm-3.063-.938 3.763-3.292c.17.195.276.372.337.496q.045.092.061.141l.017.05-.009-.044a2 2 0 0 1-.019-.137 5 5 0 0 1-.025-.526h-10c0 1.937.321 4.559 2.112 6.605zm-.875-3.312h5c0-.231.011-.401.024-.518.013-.119.026-.164.023-.151-.003.01-.104.388-.517.831l-3.655-3.412-3.655-3.412c-1.918 2.055-2.22 4.773-2.22 6.662zm.875-3.25 3.648 3.42c-.356.379-.713.534-.862.583-.121.04-.063-.003.277-.003v-10c-2.05 0-4.728.465-6.711 2.58zm3.063-1v5h6v-10h-6zm6 0 3.66-3.406-15-16.124-3.66 3.405-3.661 3.406 15 16.125zm-15-16.125-3.669-3.398-14.937 16.125 3.668 3.398 3.668 3.398 14.938-16.125zM399.75 112.5v5h4.938v-10h-4.938zm4.938 0v5c.343 0 .382.044.231-.007-.182-.06-.598-.248-.994-.7l3.763-3.293 3.762-3.293c-1.976-2.259-4.753-2.707-6.762-2.707zm3 1-3.536 3.536c-.428-.428-.551-.817-.565-.869-.009-.029.002 0 .014.104.013.103.024.26.024.479h10c0-1.953-.347-4.73-2.402-6.786zm.937 3.25h-5c0 .219-.011.379-.024.488s-.025.149-.021.135c.007-.025.104-.35.46-.73l3.648 3.419 3.647 3.42c1.924-2.052 2.29-4.733 2.29-6.732zm-.937 3.312-3.656-3.411c.419-.449.835-.613.977-.658.118-.037.047.007-.321.007v10c1.93 0 4.661-.39 6.655-2.526zm-3 .938v-5h-19.626v10h19.626zm-19.626 0v-5c-.363 0-.454-.043-.364-.015.11.033.463.168.838.542L382 120.062l-3.536 3.536c1.994 1.994 4.624 2.402 6.598 2.402zm-3.062-.938 3.763-3.292c.17.195.276.372.337.496q.045.092.061.141l.017.05-.009-.044a2 2 0 0 1-.019-.137 5 5 0 0 1-.025-.526h-10c0 1.937.321 4.559 2.112 6.605zm-.875-3.312h5c0-.231.011-.401.024-.518.013-.119.026-.164.023-.151-.003.01-.104.388-.517.831L382 113.5l-3.655-3.412c-1.918 2.055-2.22 4.773-2.22 6.662zm.875-3.25 3.648 3.42c-.356.379-.713.534-.862.583-.121.04-.063-.003.276-.003v-10c-2.049 0-4.727.465-6.71 2.58zm3.062-1v5h3.126v-10h-3.126zm3.126 0 3.619 3.45 20.312-21.313-3.619-3.45-3.619-3.45-20.313 21.313zM408.5 91.188l3.633-3.435-18.375-19.438-3.633 3.435-3.633 3.435 18.375 19.437zM390.125 71.75v-5h-4.437v10h4.437zm-4.437 0v-5c-.364 0-.455-.043-.365-.015.11.033.463.168.838.542l-3.536 3.535-3.536 3.536c1.994 1.994 4.624 2.402 6.599 2.402zm-3.063-.937 3.763-3.293c.17.195.276.372.337.496a1.3 1.3 0 0 1 .078.191l-.009-.044a2 2 0 0 1-.019-.137 5 5 0 0 1-.025-.526h-10c0 1.937.321 4.559 2.112 6.605zm-.875-3.313h5c0-.23.011-.4.024-.518.013-.119.026-.164.023-.15-.003.009-.104.387-.517.83l-3.655-3.412-3.655-3.412c-1.918 2.055-2.22 4.773-2.22 6.662zm.875-3.25 3.648 3.42c-.356.38-.713.534-.862.583-.121.04-.063-.003.277-.003v-10c-2.05 0-4.728.465-6.711 2.58zm3.063-1v5h21.5v-10h-21.5zm21.5 0v5c.343 0 .382.044.231-.007-.182-.06-.598-.248-.994-.7l3.763-3.293 3.762-3.292c-1.976-2.26-4.753-2.708-6.762-2.708zm3 1-3.536 3.535c-.428-.427-.551-.816-.565-.868-.009-.03.002 0 .014.104.013.103.024.26.024.479h10c0-1.953-.347-4.73-2.402-6.785zm.937 3.25h-5c0 .22-.011.38-.024.488-.013.11-.025.15-.021.135.007-.025.104-.35.46-.73l3.648 3.42 3.647 3.42c1.924-2.053 2.29-4.734 2.29-6.733zm-.937 3.313-3.656-3.412c.419-.45.835-.613.977-.658.118-.037.047.007-.321.007v10c1.93 0 4.661-.39 6.655-2.526zm-3 .937v-5h-4.75v10h4.75zm-4.75 0-3.677 3.389 13.25 14.375 3.677-3.389 3.676-3.389-13.25-14.375zm13.25 14.375 3.668 3.397 13.313-14.375L429 71.75l-3.669-3.397-13.312 14.375zM429 71.75v-5h-3.438v10H429zm-3.438 0v-5c-.363 0-.454-.043-.364-.015.11.033.463.168.838.542l-3.536 3.535-3.536 3.536c1.994 1.994 4.624 2.402 6.598 2.402zm-3.062-.937 3.763-3.293c.17.195.276.372.337.496a1.3 1.3 0 0 1 .078.191l-.009-.044a2 2 0 0 1-.019-.137 5 5 0 0 1-.025-.526h-10c0 1.937.321 4.559 2.112 6.605zm-.875-3.313h5c0-.23.011-.4.024-.518.013-.119.026-.164.023-.15-.003.009-.104.387-.517.83L422.5 64.25l-3.655-3.412c-1.918 2.055-2.22 4.773-2.22 6.662zm.875-3.25 3.648 3.42c-.356.38-.713.534-.862.583-.121.04-.063-.003.276-.003v-10c-2.049 0-4.727.465-6.71 2.58zm3.062-1v5h19v-10h-19zm92.126-25 4.627 1.893.063-.154.053-.158zm-42 102.688 4.58 2.004.025-.056.022-.056zm-1.563 1.624-2.428-4.37-.054.03-.053.031zm-8.063-3.75-4.627-1.892-.063.154-.053.157zm42-102.687-4.58-2.004-.025.055-.022.056zm1.5-1.625-2.428-4.37-.054.03-.053.03zm2.563-.625v5c1.072 0 1.515.204 1.626.268l2.499-4.33 2.499-4.331c-2.055-1.186-4.362-1.607-6.624-1.607zm4.125.938-2.499 4.33c.083.048-.149-.064-.409-.445a2.73 2.73 0 0 1-.467-1.51h10c0-3.294-2.037-5.501-4.126-6.706zm1.625 2.374h-5c0-.293.055-.475.069-.518l4.744 1.581 4.743 1.581a8.4 8.4 0 0 0 .444-2.644zm-.187 1.063-4.628-1.893-42 102.688 4.628 1.893 4.627 1.892 42-102.687zm-42 102.688-4.581-2.005a1.9 1.9 0 0 1 .367-.555c.129-.134.223-.187.223-.186l2.428 4.37 2.428 4.371c1.53-.85 2.91-2.15 3.715-3.991zm-1.563 1.624-2.535-4.309a1 1 0 0 1 .102-.051.4.4 0 0 1 .064-.021c.023-.006-.014.007-.131.007v10c1.7 0 3.439-.377 5.035-1.316zm-2.5.626v-5c-1.072 0-1.515-.204-1.626-.269l-2.499 4.331-2.499 4.331c2.055 1.185 4.362 1.607 6.624 1.607zm-4.125-.938 2.499-4.331c-.083-.047.149.065.409.445.297.435.467.981.467 1.511h-10c0 3.293 2.037 5.501 4.126 6.706zm-1.625-2.375h5c0 .293-.055.476-.069.519l-4.744-1.582-4.743-1.581a8.4 8.4 0 0 0-.444 2.644zm.187-1.063 4.628 1.893 42-102.687-4.628-1.893-4.627-1.893-42 102.688zm42-102.687 4.581 2.004a1.7 1.7 0 0 1-.313.481 1.1 1.1 0 0 1-.232.2l-2.536-4.31-2.535-4.31c-1.493.879-2.778 2.177-3.545 3.93zm1.5-1.625 2.429 4.37-.031.016-.01.003a1 1 0 0 1 .175-.014v-10c-1.707 0-3.414.378-4.991 1.254z" mask="url(#a)"/>
  <path stroke="#fff" stroke-linecap="round" stroke-width="20" d="M567 91h72m-32-32 32 32m-32 32 32-32"/>
  <path stroke="#000" stroke-linecap="round" stroke-width="10" d="M567 91h72m-32-32 32 32m-32 32 32-32"/>
</svg>
